<svg viewBox="0 0 1024 1024"><path d="M917.077 447.061c0-.256.171-.512.171-.768-.085-1.152-.939-2.048-1.195-3.157a20.992 20.992 0 00-2.602-6.827c-.854-1.28-2.048-2.133-3.158-3.2-1.194-1.152-2.005-2.645-3.456-3.498-.64-.384-1.408-.256-2.09-.598-.555-.256-.854-.853-1.451-1.066L433.963 257.28a21.205 21.205 0 00-27.051 27.947l85.333 213.333a21.163 21.163 0 0011.947 11.904l137.43 54.4-390.827 217.13 105.6-105.6a21.163 21.163 0 006.272-15.06V106.666a21.29 21.29 0 00-13.398-19.798L135.936 1.536a21.376 21.376 0 00-29.27 19.797v853.334c0 .597.47 1.066.513 1.664a20.65 20.65 0 002.858 9.344c.726 1.194 1.92 1.92 2.859 2.944 1.365 1.45 2.39 3.242 4.139 4.266l213.333 128a21.419 21.419 0 0022.144-.042l554.667-341.334a21.333 21.333 0 0010.154-18.176V448c0-.341-.213-.597-.256-.939z"/></svg>
