<svg xmlns="http://www.w3.org/2000/svg" viewBox="0 0 164 164"><defs><style>.lenmon_b{fill:#fff}.lenmon_d{fill:none;stroke:#fff;stroke-linecap:round;stroke-linejoin:round;stroke-width:8px}</style></defs><circle cx="82" cy="82" r="74" fill="#fbd65a"/><path class="lenmon_d" d="M145.6 75.5c-1.3-12.7-6.3-24.4-13.9-33.8-2.3-2.8-6.4-3-8.9-.5L92.3 71.7c-3.8 3.8-1.1 10.2 4.2 10.2h43.2c3.5 0 6.3-3 6-6.5zM145.6 88.5c-1.3 12.7-6.3 24.4-13.9 33.8-2.3 2.8-6.4 3-8.9.5L92.3 92.3c-3.8-3.8-1.1-10.2 4.2-10.2h43.2c3.5 0 6.3 3 6 6.5zM75.5 18.4c-12.7 1.3-24.4 6.3-33.8 13.9s-3 6.4-.5 8.9l30.5 30.5c3.8 3.8 10.2 1.1 10.2-4.2V24.4c0-3.5-3-6.3-6.5-6z"/><path class="lenmon_d" d="M88.5 18.4c12.7 1.3 24.4 6.3 33.8 13.9 2.8 2.3 3 6.4.5 8.9L92.3 71.7c-3.8 3.8-10.2 1.1-10.2-4.2V24.4c0-3.5 3-6.3 6.5-6z"/><g><path class="lenmon_d" d="M18.4 88.5c1.3 12.7 6.3 24.4 13.9 33.8s6.4 3 8.9.5l30.5-30.5c3.8-3.8 1.1-10.2-4.2-10.2H24.4c-3.5 0-6.3 3-6 6.5zM18.4 75.5c1.3-12.7 6.3-24.4 13.9-33.8 2.3-2.8 6.4-3 8.9-.5l30.5 30.5c3.8 3.8 1.1 10.2-4.2 10.2H24.4c-3.5 0-6.3-3-6-6.5z"/></g><g><path class="lenmon_d" d="M88.5 145.6c12.7-1.3 24.4-6.3 33.8-13.9 2.8-2.3 3-6.4.5-8.9L92.3 92.3c-3.8-3.8-10.2-1.1-10.2 4.2v43.2c0 3.5 3 6.3 6.5 6zM75.5 145.6c-12.7-1.3-24.4-6.3-33.8-13.9-2.8-2.3-3-6.4-.5-8.9l30.5-30.5c3.8-3.8 10.2-1.1 10.2 4.2v43.2c0 3.5-3 6.3-6.5 6z"/></g><path class="lenmon_b" d="M82 22c33.1 0 60 26.9 60 60s-26.9 60-60 60-60-26.9-60-60 26.9-60 60-60m0-8c-37.6 0-68 30.4-68 68s30.4 68 68 68 68-30.4 68-68-30.4-68-68-68z"/><circle class="lenmon_b" cx="82" cy="82" r="8"/><path d="M82 8c40.9 0 74 33.1 74 74s-33.1 74-74 74S8 122.9 8 82 41.1 8 82 8m0-8C36.8 0 0 36.8 0 82s36.8 82 82 82 82-36.8 82-82S127.2 0 82 0z" fill="#333"/></svg>
