<svg viewBox="0 0 1024 1024"><path d="M184.082 539.606c111.325-23.97 95.97-157.134 92.813-186.224-5.46-44.786-58.264-123.182-129.836-116.87C57.06 244.446 43.923 374.71 43.923 374.71c-12.241 60.141 29.09 188.783 140.159 164.855M390.737 316.06c61.42 0 111.069-70.805 111.069-158.244C501.806 70.804 452.328 0 390.907 0S279.54 70.42 279.54 157.86s49.904 158.243 111.325 158.243m264.749 10.45c82.32 11.09 134.87-76.775 145.532-143.315 10.664-66.112-42.653-143.315-100.661-156.537-58.435-13.478-130.52 79.932-137.77 140.756-7.678 74.643 10.663 148.86 92.557 159.395m325.914 111.837c0-31.82-26.147-127.661-124.121-127.661-97.89 0-111.325 90.425-111.325 154.404 0 60.995 5.033 145.875 127.32 143.315 121.775-2.985 108.467-138.196 108.467-170.186M857.491 717.47s-127.32-98.53-201.579-204.736C555.25 355.899 412.15 419.75 364.42 499.256c-47.772 80.317-121.989 130.605-132.439 144.04C221.318 656.52 78.43 733.722 110.25 874.478c31.99 140.756 143.315 138.197 143.315 138.197s81.894 8.104 177.437-13.223 177.438 5.119 177.438 5.119 222.096 74.643 283.559-68.672c60.738-143.742-34.55-217.958-34.55-217.958"/></svg>
